# xmcd
#
# Track frame offsets: 
#        150
#        20700
#        38366
#        61049
#        84519
#        107300
#        132098
#        152653
#        179001
#        210672
#        227352
#        251265
#        268328
#        295104
#
# Disc length: 4161 seconds
#
# Revision: 2
# Processed by: cddbd v1.4PL0 Copyright (c) Steve Scherf et al.
# Submitted via: ExactAudioCopy v0.90a11
#
DISCID=af103f0e
DTITLE=Junior Wells - Come on in This House
DYEAR=1900
DGENRE=
TTITLE0=What My Momma Told Me/ That's All Right
TTITLE1=Why Are People Like That?
TTITLE2=Trust My Baby
TTITLE3=Million Year Blues
TTITLE4=Give Me One Reason
TTITLE5=Ships On The Ocean
TTITLE6=She Wants To Sell My Monkey
TTITLE7=So Glad You're Mine
TTITLE8=Mystery Train
TTITLE9=I'm Gonna Move To Kansas City
TTITLE10=King Fish Blues
TTITLE11=You Better Watch Yourself
TTITLE12=Come On In This House
TTITLE13=The Goat
EXTD=
EXTT0=
EXTT1=
EXTT2=
EXTT3=
EXTT4=
EXTT5=
EXTT6=
EXTT7=
EXTT8=
EXTT9=
EXTT10=
EXTT11=
EXTT12=
EXTT13=
PLAYORDER=
